# xmcd
#
# Track frame offsets:
# 150
# 16139
# 31568
# 48972
# 68897
# 85648
#
# Disc length: 1357 seconds
#
#
# Revision: 0
# Processed by: cddbd v1.5.2PL0 Copyright (c) Steve Scherf et al.
# Submitted via: FreeRIP 2.40 
#
DISCID=36054b06
DTITLE=BRAThANKI - Same przeboje
DYEAR=2000
DGENRE=Folk
TTITLE0=Czerwone korale
TTITLE1=W kinie, w Lublinie - kochaj mnie
TTITLE2=Gdzie ten, ktory powie mi
TTITLE3=Wesele
TTITLE4=Poszlabym za toba gora
TTITLE5=Barowy gwar
EXTD=SMP
EXTT0=
EXTT1=
EXTT2=
EXTT3=
EXTT4=
EXTT5=
PLAYORDER=
